<svg width="80" height="96" viewBox="0 0 80 96" fill="none" xmlns="http://www.w3.org/2000/svg">
<path d="M76 40C76 68 40 92 40 92C40 92 4 68 4 40C4 30.4522 7.79285 21.2955 14.5442 14.5442C21.2955 7.79285 30.4522 4 40 4C49.5478 4 58.7045 7.79285 65.4558 14.5442C72.2072 21.2955 76 30.4522 76 40Z" stroke="#ffffff" stroke-width="8" stroke-linecap="round" stroke-linejoin="round"/>
<path d="M40 52C46.6274 52 52 46.6274 52 40C52 33.3726 46.6274 28 40 28C33.3726 28 28 33.3726 28 40C28 46.6274 33.3726 52 40 52Z" stroke="#ffffff" stroke-width="8" stroke-linecap="round" stroke-linejoin="round"/>
</svg>
