<svg width="114" height="205" viewBox="0 0 114 205" fill="none" xmlns="http://www.w3.org/2000/svg">
<path d="M91.2909 41.918C89.7569 41.918 88.4589 43.1579 88.4589 44.7521C88.4589 46.2873 89.6979 47.5863 91.2909 47.5863C92.8249 47.5863 94.1229 46.3463 94.1229 44.7521C94.1229 43.217 92.8249 41.918 91.2909 41.918ZM93.2379 43.9845C92.8839 43.217 92.1759 42.6856 91.2909 42.6856C91.1729 42.6856 91.1139 42.6265 91.1139 42.5084C91.1139 42.3903 91.1729 42.3313 91.2909 42.3313C92.2939 42.3313 93.1789 42.9217 93.5329 43.8074C93.5919 43.8665 93.5329 43.9845 93.4149 44.0436H93.3559C93.2969 44.1026 93.2379 44.0436 93.2379 43.9845ZM93.5329 44.7521C93.4149 44.7521 93.2969 44.634 93.2969 44.516C93.2969 44.3979 93.4149 44.2798 93.5329 44.2798C93.6509 44.2798 93.7689 44.3979 93.7689 44.516C93.7689 44.634 93.6509 44.7521 93.5329 44.7521Z" fill="white"/>
<path d="M98.2529 41.5049C96.7189 41.5049 95.4209 42.7448 95.4209 44.339C95.4209 45.9332 96.6599 47.1732 98.2529 47.1732C99.7869 47.1732 101.085 45.9332 101.085 44.339C101.085 42.7448 99.8459 41.5049 98.2529 41.5049ZM100.2 43.5124C99.8459 42.7448 99.1379 42.2134 98.2529 42.2134C98.1349 42.2134 98.0759 42.1544 98.0759 42.0363C98.0759 41.9182 98.1349 41.8592 98.2529 41.8592C99.2559 41.8592 100.141 42.4496 100.495 43.3353C100.554 43.3943 100.495 43.5124 100.377 43.5715H100.318C100.318 43.6305 100.259 43.5714 100.2 43.5124ZM100.554 44.28C100.436 44.28 100.318 44.1619 100.318 44.0438C100.318 43.9257 100.436 43.8076 100.554 43.8076C100.672 43.8076 100.79 43.9257 100.79 44.0438C100.731 44.1619 100.672 44.28 100.554 44.28Z" fill="white"/>
<path d="M94.1229 35.4824C92.5889 35.4824 91.2909 36.7224 91.2909 38.3166C91.2909 39.8518 92.5299 41.1507 94.1229 41.1507C95.6569 41.1507 96.9549 39.9108 96.9549 38.3166C96.9549 36.7814 95.6569 35.4824 94.1229 35.4824ZM96.0699 37.549C95.7159 36.7814 95.0079 36.25 94.1229 36.25C94.0049 36.25 93.9459 36.191 93.9459 36.0729C93.9459 35.9548 94.0049 35.8957 94.1229 35.8957C95.1259 35.8957 96.0109 36.4862 96.3649 37.3719C96.4239 37.4309 96.3649 37.549 96.2469 37.608H96.1879C96.1289 37.6671 96.0699 37.608 96.0699 37.549ZM96.3649 38.3166C96.2469 38.3166 96.1289 38.1985 96.1289 38.0804C96.1289 37.9623 96.2469 37.8442 96.3649 37.8442C96.4829 37.8442 96.6009 37.9623 96.6009 38.0804C96.6009 38.1985 96.4829 38.3166 96.3649 38.3166Z" fill="white"/>
<path d="M81.7328 83.8399C81.9098 83.7809 82.0868 83.7218 82.2638 83.6038C83.2078 83.1904 84.1518 82.7181 85.0368 82.1867C88.2229 80.2382 90.6419 77.286 91.5269 73.1528C92.2349 69.6692 91.7629 66.835 89.9928 64.6504C88.3998 62.6428 86.0988 61.6391 83.7978 61.1667C83.6798 61.1667 83.6208 61.1077 83.5028 61.1077C82.1458 60.8124 80.7298 60.7534 79.4908 60.7534C78.3108 60.7534 76.0098 60.8715 74.9478 61.3439C74.8298 61.4029 74.7118 61.4619 74.5348 61.521C74.3578 61.58 74.1218 61.6981 73.8858 61.8162C73.8268 61.8162 73.8268 61.8162 73.7678 61.8753C73.2368 62.0524 72.6468 62.2886 71.9388 62.5248C71.8208 62.5838 71.7618 62.5838 71.6438 62.6428C69.5197 63.2923 66.6287 63.9418 63.5017 63.9418C61.6727 63.9418 60.0207 63.7056 58.4277 63.2923C64.4457 60.281 74.3578 54.4356 80.4938 45.9922C80.8478 45.5198 81.2018 44.9884 81.4968 44.5161C82.0868 43.6304 82.6178 42.7447 83.0898 41.8591C83.4438 41.1505 83.7978 40.501 84.0928 39.7925C84.1518 39.6153 84.2108 39.4972 84.2698 39.3201C86.7479 33.1204 86.6888 26.7436 84.0338 20.3077C83.6208 19.1858 81.0248 13.4585 71.8798 13.4585C69.7558 13.4585 67.3368 13.7537 64.7997 14.4032C57.6607 16.1745 51.2296 13.1632 45.8606 5.54646C45.5656 5.13315 45.3886 4.89695 45.2116 4.71982L45.0936 4.60174L44.9166 4.48364C44.7396 4.36555 40.1376 1 34.3556 1C31.3465 1 27.1575 1.94472 23.3225 6.07786C22.2015 5.54646 20.6675 5.01504 18.8975 5.01504C16.5375 5.01504 13.1155 5.95978 9.98843 10.2701C9.51643 10.9195 5.56342 16.3517 6.86142 22.1381C7.45143 24.7951 9.04443 27.0978 11.5224 28.8692C10.4014 31.5852 9.14505 33.1795 8.26004 39.7925C7.08004 48.5902 8.55505 55.9708 16.5201 69.1968C14.4551 72.6214 7.51042 91.1615 4.0884 103.561C-1.33963 122.987 0.0763814 141.468 8.21842 157.174C6.33041 157.941 4.08841 159.299 2.3774 161.72C-0.159616 165.381 -0.690619 170.282 0.902389 176.245L0.961393 176.422C1.07939 176.777 3.9704 184.689 14.3545 184.689C16.1835 184.689 18.0715 184.452 20.1365 183.921C20.9625 189.589 24.6795 200.158 41.1996 203.524C45.9196 204.469 50.8756 205 55.8907 205C69.2247 205 80.4348 201.575 85.2138 195.966C87.3968 193.427 88.2818 190.475 87.7508 187.405C87.1018 183.212 85.6858 178.43 80.6118 178.43C79.9038 178.43 79.1958 178.489 78.5468 178.607C77.9568 178.666 77.3668 178.725 76.7768 178.725C75.8328 178.725 75.1248 178.489 74.4758 178.016C74.1808 177.78 71.1718 174.887 73.5318 167.979C73.9448 166.739 74.5348 165.44 75.3018 164.082C76.6588 161.543 78.4288 159.299 80.3168 156.878C87.5149 147.726 95.6569 137.394 87.8688 106.808C87.7508 106.218 87.1609 103.325 85.9218 99.6049C85.0958 97.066 83.9158 94.1728 82.3228 91.3386C81.0838 89.154 79.6678 86.9693 77.8978 85.1389C78.6058 85.0208 79.2548 84.8437 79.9038 84.6666C80.4938 84.3123 81.1428 84.0761 81.7328 83.8399ZM71.8208 80.4153C71.4668 80.4153 71.2308 80.4153 71.1718 80.4153L59.0177 79.7658L69.8738 85.3161C79.4318 90.2168 82.6178 107.576 82.6768 107.753L82.7358 107.93C89.9339 136.095 82.9128 145.01 76.1278 153.572C74.1808 156.052 72.1748 158.591 70.5818 161.484C69.7558 163.078 69.0478 164.672 68.5168 166.148C64.7407 177.013 70.9358 181.795 71.2308 182.032C72.8238 183.212 74.5938 183.744 76.6588 183.744C77.5438 183.744 78.3108 183.626 79.0778 183.567C79.6088 183.508 80.1398 183.449 80.4938 183.449C81.0248 183.449 81.0838 183.508 81.2608 183.685C81.5558 184.039 82.1458 185.102 82.5588 187.995C82.7948 189.589 82.3818 191.065 81.2018 192.423C77.4258 196.793 67.4547 199.627 55.7727 199.627C51.1116 199.627 46.5096 199.155 42.1436 198.269C24.0305 194.608 24.9745 181.146 25.0335 180.555L25.4465 176.54L21.6115 177.898C18.8975 178.843 16.4785 179.315 14.2954 179.315C7.98242 179.315 6.03541 175.123 5.7404 174.533C4.6194 170.164 4.85541 166.798 6.44842 164.436C8.45443 161.543 12.1125 161.071 12.1715 161.071L16.1835 160.716L14.1185 157.233C5.20941 141.999 3.4394 124.404 8.86743 104.86C12.9385 90.0987 20.2961 72.8576 20.3551 72.7395L22.1425 69.1968L19.9005 65.8903C4.6784 42.1543 16.8915 29.0463 17.0685 28.8101L18.2485 26.5074L15.9475 25.3265C13.5875 24.0865 12.2304 22.6104 11.8174 20.8391C10.9914 17.2373 14.0005 13.2223 14.0595 13.1632L14.1185 13.1042C15.5935 11.0376 17.1865 9.97483 18.8385 9.97483C19.7235 9.97483 20.5495 10.2701 21.1985 10.5653C21.7885 10.8605 22.1425 11.1557 22.1425 11.1557L24.2665 12.9861L25.9185 10.7424C28.2785 7.49493 31.0516 5.95976 34.2966 5.95976C37.7186 5.95976 40.6686 7.67206 41.5536 8.26251C41.5536 8.32156 41.6126 8.32156 41.6126 8.38061C48.3386 17.9459 55.7727 19.9534 60.8467 19.9534C62.5577 19.9534 64.2687 19.7172 66.0387 19.3039C68.1627 18.7725 70.1688 18.4773 71.8798 18.4773C73.3548 18.4773 74.5348 18.6544 75.4788 18.9496C78.2518 19.8353 79.0778 21.5476 79.1958 21.8428L79.2548 22.079C79.9628 23.7323 80.4348 25.3855 80.6708 26.9797C81.2608 30.3453 80.9068 33.5928 79.6678 36.8402C79.5498 37.0764 79.4908 37.3716 79.3728 37.6078C79.0778 38.3754 78.7238 39.0839 78.3108 39.7925C71.0538 52.9004 51.5837 60.6353 51.4067 60.6944L46.9226 62.4657L50.8756 65.2408C54.4157 67.7207 58.6637 69.0197 63.5607 69.0197C67.5137 69.0197 71.1718 68.134 73.7088 67.3074C73.8268 67.2483 73.8858 67.2483 74.0038 67.1893C74.5938 67.0122 75.1838 66.776 75.6558 66.5988C76.1868 66.4217 76.5998 66.2446 76.9538 66.0674C76.9538 66.0674 76.9538 66.0674 77.0128 66.0674C77.3668 66.0084 78.3108 65.8903 79.6088 65.8903C82.6768 65.8903 85.0368 66.5988 86.0988 67.8978C86.8658 68.8425 87.0429 70.2596 86.6299 72.09C86.0989 74.6289 84.6238 76.3413 82.8538 77.5812C82.0278 78.1716 81.0838 78.5849 80.1398 78.9392H80.0808C79.4318 79.1754 78.8418 79.3525 78.1928 79.5297C75.5378 80.2972 73.0598 80.4153 71.8208 80.4153Z" fill="white"/>
<path d="M70.9948 166.975C70.9948 166.975 91.1728 168.156 92.1758 180.319C92.1758 180.319 91.9989 189.707 84.7418 191.42" stroke="white" stroke-width="10" stroke-miterlimit="10"/>
<path d="M41.1996 33.3564C40.5506 33.3564 40.0196 32.8841 39.9016 32.2346C39.2526 27.57 40.0786 23.9683 42.3206 21.6065C45.5066 18.3 50.2856 18.7133 50.5216 18.7133C51.2296 18.7724 51.7606 19.4218 51.7016 20.1304C51.6426 20.8389 50.9936 21.3703 50.2856 21.3113C50.2266 21.3113 46.5096 21.0161 44.2086 23.4369C42.4976 25.2082 41.9666 28.0424 42.4976 31.8803C42.6156 32.5888 42.0846 33.2383 41.3766 33.3564C41.3176 33.3564 41.2586 33.3564 41.1996 33.3564Z" fill="white"/>
<path d="M52.3419 33.3475C53.8768 32.1891 53.6738 29.3293 51.8885 26.9601C50.1031 24.5909 47.4115 23.6093 45.8765 24.7677C44.3416 25.9262 44.5446 28.7859 46.33 31.1551C48.1154 33.5243 50.807 34.5059 52.3419 33.3475Z" fill="white"/>
<path d="M79.3878 28.8514C81.732 28.4479 83.2249 25.7501 82.7223 22.8257C82.2197 19.9012 79.9119 17.8576 77.5677 18.2611C75.2235 18.6646 73.7306 21.3624 74.2332 24.2869C74.7358 27.2113 77.0436 29.2549 79.3878 28.8514Z" fill="white"/>
<path d="M87.6277 59.7352C96.1023 56.627 102.363 52.4444 101.612 50.3931C100.861 48.3417 93.3818 49.1985 84.9073 52.3067C76.4327 55.4149 70.1717 59.5975 70.923 61.6489C71.6742 63.7002 79.1532 62.8435 87.6277 59.7352Z" fill="white"/>
<path d="M75.1838 62.7607L76.8948 66.1262C76.5998 66.2443 76.1278 66.4215 75.5968 66.6577C75.1248 66.8348 74.5938 67.0119 73.9448 67.2481L71.5848 62.5835L71.4077 62.2293L71.1718 61.7569L73.9448 60.3398L74.5348 61.5207L75.1838 62.7607Z" fill="white"/>
<path d="M112 91.5158L90.2878 99.4868L82.2638 83.6038L79.9628 78.9983H80.0218C80.9658 78.644 81.8508 78.1716 82.7358 77.6402L85.0368 82.2457L88.5178 89.154L89.3438 90.8072L91.7628 95.6489L108.283 89.5673L106.926 84.3714L106.336 82.1276L99.0789 53.9633L98.4299 51.4243L101.439 50.6567L101.557 51.1881L112 91.5158Z" fill="white"/>
<path d="M87.2199 53.0185C87.6919 54.3174 87.2789 55.6755 86.2759 56.0297C85.2729 56.384 84.0929 55.6164 83.6209 54.3765L78.3699 39.9695C77.8979 38.6705 78.3108 37.3125 79.3138 36.9582C80.3169 36.604 81.4969 37.3716 81.9689 38.6115L87.2199 53.0185Z" fill="white"/>
<path d="M92.7659 93.4643C93.6457 93.4643 94.3589 92.7505 94.3589 91.8701C94.3589 90.9896 93.6457 90.2759 92.7659 90.2759C91.8861 90.2759 91.1729 90.9896 91.1729 91.8701C91.1729 92.7505 91.8861 93.4643 92.7659 93.4643Z" fill="white"/>
<path d="M94.0049 89.3901C94.8847 89.3901 95.5979 88.6763 95.5979 87.7959C95.5979 86.9154 94.8847 86.2017 94.0049 86.2017C93.1251 86.2017 92.4119 86.9154 92.4119 87.7959C92.4119 88.6763 93.1251 89.3901 94.0049 89.3901Z" fill="white"/>
<path d="M92.7069 85.8476C93.5867 85.8476 94.2999 85.1339 94.2999 84.2534C94.2999 83.3729 93.5867 82.6592 92.7069 82.6592C91.8271 82.6592 91.1139 83.3729 91.1139 84.2534C91.1139 85.1339 91.8271 85.8476 92.7069 85.8476Z" fill="white"/>
<path d="M96.4829 84.4892C97.3627 84.4892 98.0759 83.7755 98.0759 82.895C98.0759 82.0145 97.3627 81.3008 96.4829 81.3008C95.6031 81.3008 94.8899 82.0145 94.8899 82.895C94.8899 83.7755 95.6031 84.4892 96.4829 84.4892Z" fill="white"/>
<path d="M100.082 83.1313C100.962 83.1313 101.675 82.4175 101.675 81.5371C101.675 80.6566 100.962 79.9429 100.082 79.9429C99.2021 79.9429 98.4889 80.6566 98.4889 81.5371C98.4889 82.4175 99.2021 83.1313 100.082 83.1313Z" fill="white"/>
<path d="M103.917 81.7143C104.797 81.7143 105.51 81.0006 105.51 80.1201C105.51 79.2396 104.797 78.5259 103.917 78.5259C103.037 78.5259 102.324 79.2396 102.324 80.1201C102.324 81.0006 103.037 81.7143 103.917 81.7143Z" fill="white"/>
<path d="M89.3439 87.3237C90.2237 87.3237 90.9369 86.6099 90.9369 85.7295C90.9369 84.849 90.2237 84.1353 89.3439 84.1353C88.4641 84.1353 87.7509 84.849 87.7509 85.7295C87.7509 86.6099 88.4641 87.3237 89.3439 87.3237Z" fill="white"/>
<path d="M97.958 87.914C98.8378 87.914 99.551 87.2003 99.551 86.3198C99.551 85.4393 98.8378 84.7256 97.958 84.7256C97.0782 84.7256 96.365 85.4393 96.365 86.3198C96.365 87.2003 97.0782 87.914 97.958 87.914Z" fill="white"/>
<path d="M101.97 86.438C102.85 86.438 103.563 85.7242 103.563 84.8437C103.563 83.9633 102.85 83.2495 101.97 83.2495C101.09 83.2495 100.377 83.9633 100.377 84.8437C100.377 85.7242 101.09 86.438 101.97 86.438Z" fill="white"/>
<path d="M105.628 85.1391C106.508 85.1391 107.221 84.4253 107.221 83.5449C107.221 82.6644 106.508 81.9507 105.628 81.9507C104.748 81.9507 104.035 82.6644 104.035 83.5449C104.035 84.4253 104.748 85.1391 105.628 85.1391Z" fill="white"/>
<path d="M90.1108 90.9843C90.9906 90.9843 91.7038 90.2706 91.7038 89.3901C91.7038 88.5097 90.9906 87.7959 90.1108 87.7959C89.231 87.7959 88.5178 88.5097 88.5178 89.3901C88.5178 90.2706 89.231 90.9843 90.1108 90.9843Z" fill="white"/>
<path d="M97.132 91.811C98.0118 91.811 98.725 91.0972 98.725 90.2168C98.725 89.3363 98.0118 88.6226 97.132 88.6226C96.2522 88.6226 95.5389 89.3363 95.5389 90.2168C95.5389 91.0972 96.2522 91.811 97.132 91.811Z" fill="white"/>
<path d="M101.321 90.2758C102.201 90.2758 102.914 89.5621 102.914 88.6816C102.914 87.8012 102.201 87.0874 101.321 87.0874C100.441 87.0874 99.7279 87.8012 99.7279 88.6816C99.7279 89.5621 100.441 90.2758 101.321 90.2758Z" fill="white"/>
<path d="M105.451 88.7998C106.331 88.7998 107.044 88.086 107.044 87.2056C107.044 86.3251 106.331 85.6113 105.451 85.6113C104.571 85.6113 103.858 86.3251 103.858 87.2056C103.858 88.086 104.571 88.7998 105.451 88.7998Z" fill="white"/>
<path d="M77.3668 40.3241C74.7118 40.3241 71.7618 39.5565 69.2838 37.1357C68.6938 36.5452 68.6348 35.5415 69.2248 34.951C69.8148 34.3606 70.8178 34.3015 71.4078 34.892C76.0098 39.3794 82.3818 36.0138 82.4408 36.0138C83.2078 35.6005 84.1518 35.8957 84.5058 36.6633C84.8598 37.4309 84.6239 38.3756 83.8569 38.7889C82.4998 39.5565 80.0808 40.3241 77.3668 40.3241Z" fill="white"/>
<path d="M92.4709 41.3276C90.9369 41.3276 89.6389 42.5676 89.6389 44.1618C89.6389 45.697 90.8779 46.9959 92.4709 46.9959C94.0049 46.9959 95.3029 45.756 95.3029 44.1618C95.3029 42.6266 94.0049 41.3276 92.4709 41.3276ZM94.4179 43.3942C94.0639 42.6266 93.3559 42.0952 92.4709 42.0952C92.3529 42.0952 92.2939 42.0362 92.2939 41.9181C92.2939 41.8 92.3529 41.741 92.4709 41.741C93.4739 41.741 94.3589 42.3314 94.7129 43.2171C94.7719 43.2761 94.713 43.3942 94.595 43.4533H94.5359C94.4769 43.5123 94.4179 43.4533 94.4179 43.3942ZM94.7129 44.1618C94.5949 44.1618 94.4769 44.0437 94.4769 43.9256C94.4769 43.8075 94.5949 43.6894 94.7129 43.6894C94.8309 43.6894 94.9489 43.8075 94.9489 43.9256C94.9489 44.0437 94.8309 44.1618 94.7129 44.1618Z" fill="white"/>
<path d="M99.433 40.9146C97.899 40.9146 96.601 42.1545 96.601 43.7487C96.601 45.3429 97.84 46.5829 99.433 46.5829C100.967 46.5829 102.265 45.3429 102.265 43.7487C102.265 42.1545 101.026 40.9146 99.433 40.9146ZM101.38 42.9221C101.026 42.1545 100.318 41.6231 99.433 41.6231C99.315 41.6231 99.256 41.564 99.256 41.446C99.256 41.3279 99.315 41.2688 99.433 41.2688C100.436 41.2688 101.321 41.8593 101.675 42.7449C101.734 42.804 101.675 42.9221 101.557 42.9811H101.498C101.498 43.0402 101.439 42.9811 101.38 42.9221ZM101.734 43.6896C101.616 43.6896 101.498 43.5716 101.498 43.4535C101.498 43.3354 101.616 43.2173 101.734 43.2173C101.852 43.2173 101.97 43.3354 101.97 43.4535C101.911 43.5716 101.852 43.6896 101.734 43.6896Z" fill="white"/>
<path d="M95.303 34.8921C93.7689 34.8921 92.4709 36.132 92.4709 37.7263C92.4709 39.2614 93.7099 40.5604 95.303 40.5604C96.837 40.5604 98.135 39.3205 98.135 37.7263C98.135 36.1911 96.837 34.8921 95.303 34.8921ZM97.25 36.9587C96.896 36.1911 96.188 35.6597 95.303 35.6597C95.185 35.6597 95.126 35.6006 95.126 35.4825C95.126 35.3644 95.185 35.3054 95.303 35.3054C96.306 35.3054 97.191 35.8959 97.545 36.7815C97.604 36.8406 97.545 36.9587 97.427 37.0177H97.368C97.309 37.0768 97.25 37.0177 97.25 36.9587ZM97.545 37.7263C97.427 37.7263 97.309 37.6082 97.309 37.4901C97.309 37.372 97.427 37.2539 97.545 37.2539C97.663 37.2539 97.781 37.372 97.781 37.4901C97.781 37.6082 97.663 37.7263 97.545 37.7263Z" fill="white"/>
<path d="M82.9129 83.2496C83.0899 83.1906 83.2669 83.1315 83.4439 83.0134C84.3879 82.6001 85.3319 82.1278 86.2169 81.5964C89.4029 79.6479 91.8219 76.6956 92.7069 72.5625C93.4149 69.0788 92.9429 66.2447 91.1729 64.06C89.5799 62.0525 87.2789 61.0487 84.9779 60.5764C84.8599 60.5764 84.8009 60.5173 84.6829 60.5173C83.3259 60.2221 81.9099 60.1631 80.6708 60.1631C79.4908 60.1631 77.1898 60.2812 76.1278 60.7535C76.0098 60.8126 75.8918 60.8716 75.7148 60.9307C75.5378 60.9897 75.3018 61.1078 75.0658 61.2259C75.0068 61.2259 75.0068 61.2259 74.9478 61.2849C74.4168 61.4621 73.8268 61.6982 73.1188 61.9344C73.0008 61.9935 72.9418 61.9935 72.8238 62.0525C70.6998 62.702 67.8088 63.3515 64.6818 63.3515C62.8528 63.3515 61.2007 63.1153 59.6077 62.702C65.6258 59.6907 75.5378 53.8453 81.6739 45.4019C82.0279 44.9295 82.3819 44.3981 82.6769 43.9257C83.2669 43.0401 83.7979 42.1544 84.2699 41.2687C84.6239 40.5602 84.9779 39.9107 85.2729 39.2021C85.3319 39.025 85.3909 38.9069 85.4499 38.7298C87.9279 32.5301 87.8689 26.1532 85.2139 19.7173C84.8009 18.5955 82.2049 12.8681 73.0598 12.8681C70.9358 12.8681 68.5168 13.1634 65.9798 13.8129C58.8408 15.5842 52.4097 12.5729 47.0407 4.95613C46.7457 4.54282 46.5687 4.30662 46.3917 4.12949L46.2737 4.01141L46.0967 3.89331C45.9197 3.77522 41.3176 0.409668 35.5356 0.409668C32.5266 0.409668 28.3376 1.35439 24.5026 5.48753C23.3816 4.95613 21.8475 4.42471 20.0775 4.42471C17.7175 4.42471 14.2955 5.36944 11.1685 9.67972C10.6965 10.3292 6.74347 15.7613 8.04148 21.5477C8.63148 24.2047 10.2245 26.5075 12.7025 28.2788C11.5815 30.9949 10.3251 32.5891 9.4401 39.2021C8.26009 47.9998 9.7351 55.3804 17.7001 68.6065C15.6351 72.0311 8.69047 90.5712 5.26846 102.971C-0.159572 122.396 1.25644 140.877 9.39848 156.583C7.51047 157.351 5.26846 158.709 3.55745 161.13C1.02044 164.791 0.489435 169.691 2.08244 175.655L2.14145 175.832C2.25945 176.186 5.15045 184.098 15.5345 184.098C17.3635 184.098 19.2515 183.862 21.3165 183.331C22.1426 188.999 25.8596 199.568 42.3797 202.934C47.0997 203.878 52.0557 204.41 57.0707 204.41C70.4048 204.41 81.6149 200.985 86.3939 195.376C88.5769 192.837 89.4619 189.885 88.9309 186.814C88.2819 182.622 86.8659 177.839 81.7919 177.839C81.0839 177.839 80.3759 177.899 79.7269 178.017C79.1369 178.076 78.5469 178.135 77.9568 178.135C77.0128 178.135 76.3048 177.899 75.6558 177.426C75.3608 177.19 72.3518 174.297 74.7118 167.389C75.1248 166.149 75.7148 164.85 76.4818 163.492C77.8388 160.953 79.6089 158.709 81.4969 156.288C88.6949 147.136 96.8369 136.803 89.0489 106.218C88.9309 105.628 88.3409 102.734 87.1019 99.0146C86.2759 96.4757 85.0959 93.5825 83.5029 90.7483C82.2639 88.5636 80.8478 86.379 79.0778 84.5486C79.7858 84.4305 80.4349 84.2534 81.0839 84.0762C81.6739 83.722 82.3229 83.4858 82.9129 83.2496ZM73.0008 79.825C72.6468 79.825 72.4108 79.825 72.3518 79.825L60.1977 79.1755L71.0538 84.7257C80.6119 89.6264 83.7979 106.986 83.8569 107.163L83.9159 107.34C91.1139 135.504 84.0929 144.42 77.3078 152.982C75.3608 155.461 73.3548 158 71.7618 160.894C70.9358 162.488 70.2278 164.082 69.6968 165.558C65.9208 176.422 72.1158 181.205 72.4108 181.441C74.0038 182.622 75.7738 183.154 77.8388 183.154C78.7238 183.154 79.4908 183.035 80.2578 182.976C80.7888 182.917 81.3199 182.858 81.6739 182.858C82.2049 182.858 82.2639 182.917 82.4409 183.094C82.7359 183.449 83.3259 184.512 83.7389 187.405C83.9749 188.999 83.5619 190.475 82.3819 191.833C78.6059 196.202 68.6348 199.037 56.9527 199.037C52.2917 199.037 47.6897 198.564 43.3237 197.679C25.2106 194.018 26.1546 180.556 26.2136 179.965L26.6266 175.95L22.7916 177.308C20.0775 178.253 17.6585 178.725 15.4755 178.725C9.16247 178.725 7.21546 174.533 6.92046 173.943C5.79945 169.573 6.03546 166.208 7.62847 163.846C9.63448 160.953 13.2925 160.48 13.3515 160.48L17.3635 160.126L15.2985 156.642C6.38946 141.409 4.61946 123.813 10.0475 104.27C14.1185 89.5084 21.4762 72.2673 21.5352 72.1492L23.3226 68.6065L21.0805 65.3C5.85845 41.5639 18.0715 28.456 18.2485 28.2198L19.4285 25.9171L17.1275 24.7362C14.7675 23.4962 13.4105 22.0201 12.9975 20.2487C12.1715 16.647 15.1805 12.632 15.2395 12.5729L15.2985 12.5139C16.7735 10.4473 18.3665 9.38449 20.0185 9.38449C20.9035 9.38449 21.7295 9.67972 22.3785 9.97494C22.9685 10.2702 23.3226 10.5654 23.3226 10.5654L25.4466 12.3958L27.0986 10.1521C29.4586 6.9046 32.2316 5.36943 35.4766 5.36943C38.8986 5.36943 41.8487 7.08173 42.7337 7.67218C42.7337 7.73122 42.7926 7.73123 42.7926 7.79028C49.5187 17.3555 56.9527 19.3631 62.0268 19.3631C63.7378 19.3631 65.4488 19.1269 67.2188 18.7136C69.3428 18.1822 71.3488 17.887 73.0598 17.887C74.5348 17.887 75.7148 18.0641 76.6588 18.3593C79.4318 19.245 80.2578 20.9573 80.3758 21.2525L80.4349 21.4887C81.1429 23.1419 81.6149 24.7952 81.8509 26.3894C82.4409 29.755 82.0868 33.0024 80.8478 36.2499C80.7298 36.4861 80.6708 36.7813 80.5528 37.0175C80.2578 37.7851 79.9038 38.4936 79.4908 39.2021C72.2338 52.3101 52.7637 60.045 52.5867 60.104L48.1027 61.8754L52.0557 64.6505C55.5957 67.1304 59.8437 68.4294 64.7408 68.4294C68.6938 68.4294 72.3518 67.5437 74.8888 66.717C75.0068 66.658 75.0658 66.658 75.1838 66.599C75.7738 66.4218 76.3638 66.1856 76.8358 66.0085C77.3668 65.8314 77.7798 65.6542 78.1338 65.4771C78.1338 65.4771 78.1338 65.4771 78.1928 65.4771C78.5468 65.4181 79.4909 65.3 80.7889 65.3C83.8569 65.3 86.2169 66.0085 87.2789 67.3075C88.0459 68.2522 88.2229 69.6693 87.8099 71.4997C87.2789 74.0386 85.8039 75.7509 84.0339 76.9909C83.2079 77.5813 82.2639 77.9946 81.3199 78.3489H81.2609C80.6118 78.5851 80.0218 78.7622 79.3728 78.9393C76.7178 79.7069 74.2398 79.825 73.0008 79.825Z" fill="white"/>
<path d="M72.1748 166.385C72.1748 166.385 92.3529 167.566 93.3559 179.729C93.3559 179.729 93.1789 189.117 85.9219 190.829" stroke="white" stroke-width="10" stroke-miterlimit="10"/>
<path d="M42.3796 32.7661C41.7306 32.7661 41.1996 32.2937 41.0816 31.6443C40.4326 26.9797 41.2586 23.378 43.5006 21.0162C46.6866 17.7097 51.4657 18.123 51.7017 18.123C52.4097 18.182 52.9407 18.8315 52.8817 19.5401C52.8227 20.2486 52.1737 20.78 51.4657 20.7209C51.4067 20.7209 47.6897 20.4257 45.3886 22.8466C43.6776 24.6179 43.1466 27.4521 43.6776 31.29C43.7956 31.9985 43.2646 32.648 42.5566 32.7661C42.4976 32.7661 42.4386 32.7661 42.3796 32.7661Z" fill="white"/>
<path d="M53.522 32.7572C55.0569 31.5987 54.8539 28.739 53.0685 26.3698C51.2832 24.0005 48.5915 23.019 47.0566 24.1774C45.5216 25.3358 45.7247 28.1955 47.51 30.5648C49.2954 32.934 51.987 33.9156 53.522 32.7572Z" fill="white"/>
<path d="M80.5678 28.2611C82.9121 27.8576 84.405 25.1598 83.9024 22.2354C83.3998 19.3109 81.092 17.2673 78.7477 17.6708C76.4035 18.0743 74.9106 20.7721 75.4132 23.6965C75.9158 26.621 78.2236 28.6646 80.5678 28.2611Z" fill="white"/>
<path d="M88.8078 59.1449C97.2823 56.0367 103.543 51.8541 102.792 49.8027C102.041 47.7514 94.5619 48.6081 86.0873 51.7163C77.6128 54.8245 71.3518 59.0072 72.103 61.0585C72.8543 63.1099 80.3333 62.2531 88.8078 59.1449Z" fill="white"/>
<path d="M76.3638 62.1708L78.0749 65.5364C77.7798 65.6545 77.3078 65.8316 76.7768 66.0678C76.3048 66.2449 75.7738 66.4221 75.1248 66.6582L72.7648 61.9937L72.5878 61.6394L72.3518 61.1671L75.1248 59.75L75.7148 60.9309L76.3638 62.1708Z" fill="white"/>
<path d="M113.18 90.9254L91.4679 98.8965L83.4438 83.0134L81.1428 78.4079H81.2018C82.1458 78.0537 83.0308 77.5813 83.9158 77.0499L86.2169 81.6554L89.6979 88.5636L90.5239 90.2169L92.9429 95.0586L109.463 88.977L108.106 83.781L107.516 81.5373L100.259 53.3729L99.61 50.834L102.619 50.0664L102.737 50.5978L113.18 90.9254Z" fill="white"/>
<path d="M88.4 52.4281C88.872 53.7271 88.4589 55.0851 87.4559 55.4394C86.4529 55.7937 85.2729 55.0261 84.8009 53.7861L79.5499 39.3792C79.0779 38.0802 79.4909 36.7222 80.4939 36.3679C81.4969 36.0136 82.6769 36.7812 83.1489 38.0212L88.4 52.4281Z" fill="white"/>
<path d="M93.9459 92.874C94.8257 92.874 95.5389 92.1602 95.5389 91.2797C95.5389 90.3993 94.8257 89.6855 93.9459 89.6855C93.0661 89.6855 92.3529 90.3993 92.3529 91.2797C92.3529 92.1602 93.0661 92.874 93.9459 92.874Z" fill="white"/>
<path d="M95.1849 88.7998C96.0647 88.7998 96.7779 88.086 96.7779 87.2056C96.7779 86.3251 96.0647 85.6113 95.1849 85.6113C94.3051 85.6113 93.5919 86.3251 93.5919 87.2056C93.5919 88.086 94.3051 88.7998 95.1849 88.7998Z" fill="white"/>
<path d="M93.887 85.2573C94.7668 85.2573 95.48 84.5435 95.48 83.6631C95.48 82.7826 94.7668 82.0688 93.887 82.0688C93.0072 82.0688 92.2939 82.7826 92.2939 83.6631C92.2939 84.5435 93.0072 85.2573 93.887 85.2573Z" fill="white"/>
<path d="M97.6629 83.8989C98.5427 83.8989 99.2559 83.1851 99.2559 82.3047C99.2559 81.4242 98.5427 80.7104 97.6629 80.7104C96.7831 80.7104 96.0699 81.4242 96.0699 82.3047C96.0699 83.1851 96.7831 83.8989 97.6629 83.8989Z" fill="white"/>
<path d="M101.262 82.541C102.142 82.541 102.855 81.8272 102.855 80.9467C102.855 80.0663 102.142 79.3525 101.262 79.3525C100.382 79.3525 99.6689 80.0663 99.6689 80.9467C99.6689 81.8272 100.382 82.541 101.262 82.541Z" fill="white"/>
<path d="M105.097 81.124C105.977 81.124 106.69 80.4102 106.69 79.5298C106.69 78.6493 105.977 77.9355 105.097 77.9355C104.217 77.9355 103.504 78.6493 103.504 79.5298C103.504 80.4102 104.217 81.124 105.097 81.124Z" fill="white"/>
<path d="M90.5239 86.7334C91.4037 86.7334 92.1169 86.0196 92.1169 85.1391C92.1169 84.2587 91.4037 83.5449 90.5239 83.5449C89.6441 83.5449 88.9309 84.2587 88.9309 85.1391C88.9309 86.0196 89.6441 86.7334 90.5239 86.7334Z" fill="white"/>
<path d="M99.138 87.3237C100.018 87.3237 100.731 86.6099 100.731 85.7295C100.731 84.849 100.018 84.1353 99.138 84.1353C98.2582 84.1353 97.545 84.849 97.545 85.7295C97.545 86.6099 98.2582 87.3237 99.138 87.3237Z" fill="white"/>
<path d="M103.15 85.8476C104.03 85.8476 104.743 85.1339 104.743 84.2534C104.743 83.3729 104.03 82.6592 103.15 82.6592C102.27 82.6592 101.557 83.3729 101.557 84.2534C101.557 85.1339 102.27 85.8476 103.15 85.8476Z" fill="white"/>
<path d="M106.808 84.5488C107.688 84.5488 108.401 83.835 108.401 82.9546C108.401 82.0741 107.688 81.3604 106.808 81.3604C105.928 81.3604 105.215 82.0741 105.215 82.9546C105.215 83.835 105.928 84.5488 106.808 84.5488Z" fill="white"/>
<path d="M91.2909 90.394C92.1707 90.394 92.8839 89.6802 92.8839 88.7998C92.8839 87.9193 92.1707 87.2056 91.2909 87.2056C90.4111 87.2056 89.6979 87.9193 89.6979 88.7998C89.6979 89.6802 90.4111 90.394 91.2909 90.394Z" fill="white"/>
<path d="M98.312 91.2206C99.1918 91.2206 99.905 90.5069 99.905 89.6264C99.905 88.746 99.1918 88.0322 98.312 88.0322C97.4322 88.0322 96.719 88.746 96.719 89.6264C96.719 90.5069 97.4322 91.2206 98.312 91.2206Z" fill="white"/>
<path d="M102.501 89.6855C103.381 89.6855 104.094 88.9717 104.094 88.0913C104.094 87.2108 103.381 86.4971 102.501 86.4971C101.621 86.4971 100.908 87.2108 100.908 88.0913C100.908 88.9717 101.621 89.6855 102.501 89.6855Z" fill="white"/>
<path d="M106.631 88.2094C107.511 88.2094 108.224 87.4957 108.224 86.6152C108.224 85.7348 107.511 85.021 106.631 85.021C105.751 85.021 105.038 85.7348 105.038 86.6152C105.038 87.4957 105.751 88.2094 106.631 88.2094Z" fill="white"/>
<path d="M78.5469 39.7338C75.8919 39.7338 72.9418 38.9662 70.4638 36.5453C69.8738 35.9549 69.8148 34.9511 70.4048 34.3607C70.9948 33.7702 71.9978 33.7112 72.5878 34.3016C77.1898 38.789 83.5619 35.4235 83.6209 35.4235C84.3879 35.0102 85.3319 35.3054 85.6859 36.073C86.0399 36.8406 85.8039 37.7853 85.0369 38.1986C83.6799 38.9662 81.2609 39.7338 78.5469 39.7338Z" fill="white"/>
<path d="M91.2909 41.918C89.7569 41.918 88.4589 43.1579 88.4589 44.7521C88.4589 46.2873 89.6979 47.5863 91.2909 47.5863C92.8249 47.5863 94.1229 46.3463 94.1229 44.7521C94.1229 43.217 92.8249 41.918 91.2909 41.918ZM93.2379 43.9845C92.8839 43.217 92.1759 42.6856 91.2909 42.6856C91.1729 42.6856 91.1139 42.6265 91.1139 42.5084C91.1139 42.3903 91.1729 42.3313 91.2909 42.3313C92.2939 42.3313 93.1789 42.9217 93.5329 43.8074C93.5919 43.8665 93.5329 43.9845 93.4149 44.0436H93.3559C93.2969 44.1026 93.2379 44.0436 93.2379 43.9845ZM93.5329 44.7521C93.4149 44.7521 93.2969 44.634 93.2969 44.516C93.2969 44.3979 93.4149 44.2798 93.5329 44.2798C93.6509 44.2798 93.7689 44.3979 93.7689 44.516C93.7689 44.634 93.6509 44.7521 93.5329 44.7521Z" fill="white"/>
<path d="M98.2529 41.5049C96.7189 41.5049 95.4209 42.7448 95.4209 44.339C95.4209 45.9332 96.6599 47.1732 98.2529 47.1732C99.7869 47.1732 101.085 45.9332 101.085 44.339C101.085 42.7448 99.8459 41.5049 98.2529 41.5049ZM100.2 43.5124C99.8459 42.7448 99.1379 42.2134 98.2529 42.2134C98.1349 42.2134 98.0759 42.1544 98.0759 42.0363C98.0759 41.9182 98.1349 41.8592 98.2529 41.8592C99.2559 41.8592 100.141 42.4496 100.495 43.3353C100.554 43.3943 100.495 43.5124 100.377 43.5715H100.318C100.318 43.6305 100.259 43.5714 100.2 43.5124ZM100.554 44.28C100.436 44.28 100.318 44.1619 100.318 44.0438C100.318 43.9257 100.436 43.8076 100.554 43.8076C100.672 43.8076 100.79 43.9257 100.79 44.0438C100.731 44.1619 100.672 44.28 100.554 44.28Z" fill="white"/>
<path d="M94.1229 35.4824C92.5889 35.4824 91.2909 36.7224 91.2909 38.3166C91.2909 39.8518 92.5299 41.1507 94.1229 41.1507C95.6569 41.1507 96.9549 39.9108 96.9549 38.3166C96.9549 36.7814 95.6569 35.4824 94.1229 35.4824ZM96.0699 37.549C95.7159 36.7814 95.0079 36.25 94.1229 36.25C94.0049 36.25 93.9459 36.191 93.9459 36.0729C93.9459 35.9548 94.0049 35.8957 94.1229 35.8957C95.1259 35.8957 96.0109 36.4862 96.3649 37.3719C96.4239 37.4309 96.3649 37.549 96.2469 37.608H96.1879C96.1289 37.6671 96.0699 37.608 96.0699 37.549ZM96.3649 38.3166C96.2469 38.3166 96.1289 38.1985 96.1289 38.0804C96.1289 37.9623 96.2469 37.8442 96.3649 37.8442C96.4829 37.8442 96.6009 37.9623 96.6009 38.0804C96.6009 38.1985 96.4829 38.3166 96.3649 38.3166Z" fill="white"/>
<path d="M81.7328 83.8399C81.9098 83.7809 82.0868 83.7218 82.2638 83.6038C83.2078 83.1904 84.1518 82.7181 85.0368 82.1867C88.2229 80.2382 90.6419 77.286 91.5269 73.1528C92.2349 69.6692 91.7629 66.835 89.9928 64.6504C88.3998 62.6428 86.0988 61.6391 83.7978 61.1667C83.6798 61.1667 83.6208 61.1077 83.5028 61.1077C82.1458 60.8124 80.7298 60.7534 79.4908 60.7534C78.3108 60.7534 76.0098 60.8715 74.9478 61.3439C74.8298 61.4029 74.7118 61.4619 74.5348 61.521C74.3578 61.58 74.1218 61.6981 73.8858 61.8162C73.8268 61.8162 73.8268 61.8162 73.7678 61.8753C73.2368 62.0524 72.6468 62.2886 71.9388 62.5248C71.8208 62.5838 71.7618 62.5838 71.6438 62.6428C69.5197 63.2923 66.6287 63.9418 63.5017 63.9418C61.6727 63.9418 60.0207 63.7056 58.4277 63.2923C64.4457 60.281 74.3578 54.4356 80.4938 45.9922C80.8478 45.5198 81.2018 44.9884 81.4968 44.5161C82.0868 43.6304 82.6178 42.7447 83.0898 41.8591C83.4438 41.1505 83.7978 40.501 84.0928 39.7925C84.1518 39.6153 84.2108 39.4972 84.2698 39.3201C86.7479 33.1204 86.6888 26.7436 84.0338 20.3077C83.6208 19.1858 81.0248 13.4585 71.8798 13.4585C69.7558 13.4585 67.3368 13.7537 64.7997 14.4032C57.6607 16.1745 51.2296 13.1632 45.8606 5.54646C45.5656 5.13315 45.3886 4.89695 45.2116 4.71982L45.0936 4.60174L44.9166 4.48364C44.7396 4.36555 40.1376 1 34.3556 1C31.3465 1 27.1575 1.94472 23.3225 6.07786C22.2015 5.54646 20.6675 5.01504 18.8975 5.01504C16.5375 5.01504 13.1155 5.95978 9.98843 10.2701C9.51643 10.9195 5.56342 16.3517 6.86142 22.1381C7.45143 24.7951 9.04443 27.0978 11.5224 28.8692C10.4014 31.5852 9.14505 33.1795 8.26004 39.7925C7.08004 48.5902 8.55505 55.9708 16.5201 69.1968C14.4551 72.6214 7.51042 91.1615 4.0884 103.561C-1.33963 122.987 0.0763814 141.468 8.21842 157.174C6.33041 157.941 4.08841 159.299 2.3774 161.72C-0.159616 165.381 -0.690619 170.282 0.902389 176.245L0.961393 176.422C1.07939 176.777 3.9704 184.689 14.3545 184.689C16.1835 184.689 18.0715 184.452 20.1365 183.921C20.9625 189.589 24.6795 200.158 41.1996 203.524C45.9196 204.469 50.8756 205 55.8907 205C69.2247 205 80.4348 201.575 85.2138 195.966C87.3968 193.427 88.2818 190.475 87.7508 187.405C87.1018 183.212 85.6858 178.43 80.6118 178.43C79.9038 178.43 79.1958 178.489 78.5468 178.607C77.9568 178.666 77.3668 178.725 76.7768 178.725C75.8328 178.725 75.1248 178.489 74.4758 178.016C74.1808 177.78 71.1718 174.887 73.5318 167.979C73.9448 166.739 74.5348 165.44 75.3018 164.082C76.6588 161.543 78.4288 159.299 80.3168 156.878C87.5149 147.726 95.6569 137.394 87.8688 106.808C87.7508 106.218 87.1609 103.325 85.9218 99.6049C85.0958 97.066 83.9158 94.1728 82.3228 91.3386C81.0838 89.154 79.6678 86.9693 77.8978 85.1389C78.6058 85.0208 79.2548 84.8437 79.9038 84.6666C80.4938 84.3123 81.1428 84.0761 81.7328 83.8399ZM71.8208 80.4153C71.4668 80.4153 71.2308 80.4153 71.1718 80.4153L59.0177 79.7658L69.8738 85.3161C79.4318 90.2168 82.6178 107.576 82.6768 107.753L82.7358 107.93C89.9339 136.095 82.9128 145.01 76.1278 153.572C74.1808 156.052 72.1748 158.591 70.5818 161.484C69.7558 163.078 69.0478 164.672 68.5168 166.148C64.7407 177.013 70.9358 181.795 71.2308 182.032C72.8238 183.212 74.5938 183.744 76.6588 183.744C77.5438 183.744 78.3108 183.626 79.0778 183.567C79.6088 183.508 80.1398 183.449 80.4938 183.449C81.0248 183.449 81.0838 183.508 81.2608 183.685C81.5558 184.039 82.1458 185.102 82.5588 187.995C82.7948 189.589 82.3818 191.065 81.2018 192.423C77.4258 196.793 67.4547 199.627 55.7727 199.627C51.1116 199.627 46.5096 199.155 42.1436 198.269C24.0305 194.608 24.9745 181.146 25.0335 180.555L25.4465 176.54L21.6115 177.898C18.8975 178.843 16.4785 179.315 14.2954 179.315C7.98242 179.315 6.03541 175.123 5.7404 174.533C4.6194 170.164 4.85541 166.798 6.44842 164.436C8.45443 161.543 12.1125 161.071 12.1715 161.071L16.1835 160.716L14.1185 157.233C5.20941 141.999 3.4394 124.404 8.86743 104.86C12.9385 90.0987 20.2961 72.8576 20.3551 72.7395L22.1425 69.1968L19.9005 65.8903C4.6784 42.1543 16.8915 29.0463 17.0685 28.8101L18.2485 26.5074L15.9475 25.3265C13.5875 24.0865 12.2304 22.6104 11.8174 20.8391C10.9914 17.2373 14.0005 13.2223 14.0595 13.1632L14.1185 13.1042C15.5935 11.0376 17.1865 9.97483 18.8385 9.97483C19.7235 9.97483 20.5495 10.2701 21.1985 10.5653C21.7885 10.8605 22.1425 11.1557 22.1425 11.1557L24.2665 12.9861L25.9185 10.7424C28.2785 7.49493 31.0516 5.95976 34.2966 5.95976C37.7186 5.95976 40.6686 7.67206 41.5536 8.26251C41.5536 8.32156 41.6126 8.32156 41.6126 8.38061C48.3386 17.9459 55.7727 19.9534 60.8467 19.9534C62.5577 19.9534 64.2687 19.7172 66.0387 19.3039C68.1627 18.7725 70.1688 18.4773 71.8798 18.4773C73.3548 18.4773 74.5348 18.6544 75.4788 18.9496C78.2518 19.8353 79.0778 21.5476 79.1958 21.8428L79.2548 22.079C79.9628 23.7323 80.4348 25.3855 80.6708 26.9797C81.2608 30.3453 80.9068 33.5928 79.6678 36.8402C79.5498 37.0764 79.4908 37.3716 79.3728 37.6078C79.0778 38.3754 78.7238 39.0839 78.3108 39.7925C71.0538 52.9004 51.5837 60.6353 51.4067 60.6944L46.9226 62.4657L50.8756 65.2408C54.4157 67.7207 58.6637 69.0197 63.5607 69.0197C67.5137 69.0197 71.1718 68.134 73.7088 67.3074C73.8268 67.2483 73.8858 67.2483 74.0038 67.1893C74.5938 67.0122 75.1838 66.776 75.6558 66.5988C76.1868 66.4217 76.5998 66.2446 76.9538 66.0674C76.9538 66.0674 76.9538 66.0674 77.0128 66.0674C77.3668 66.0084 78.3108 65.8903 79.6088 65.8903C82.6768 65.8903 85.0368 66.5988 86.0988 67.8978C86.8658 68.8425 87.0429 70.2596 86.6299 72.09C86.0989 74.6289 84.6238 76.3413 82.8538 77.5812C82.0278 78.1716 81.0838 78.5849 80.1398 78.9392H80.0808C79.4318 79.1754 78.8418 79.3525 78.1928 79.5297C75.5378 80.2972 73.0598 80.4153 71.8208 80.4153Z" fill="white"/>
<path d="M70.9948 166.975C70.9948 166.975 91.1728 168.156 92.1758 180.319C92.1758 180.319 91.9989 189.707 84.7418 191.42" stroke="white" stroke-width="10" stroke-miterlimit="10"/>
<path d="M41.1996 33.3564C40.5506 33.3564 40.0196 32.8841 39.9016 32.2346C39.2526 27.57 40.0786 23.9683 42.3206 21.6065C45.5066 18.3 50.2856 18.7133 50.5216 18.7133C51.2296 18.7724 51.7606 19.4218 51.7016 20.1304C51.6426 20.8389 50.9936 21.3703 50.2856 21.3113C50.2266 21.3113 46.5096 21.0161 44.2086 23.4369C42.4976 25.2082 41.9666 28.0424 42.4976 31.8803C42.6156 32.5888 42.0846 33.2383 41.3766 33.3564C41.3176 33.3564 41.2586 33.3564 41.1996 33.3564Z" fill="white"/>
<path d="M52.3419 33.3475C53.8768 32.1891 53.6738 29.3293 51.8885 26.9601C50.1031 24.5909 47.4115 23.6093 45.8765 24.7677C44.3416 25.9262 44.5446 28.7859 46.33 31.1551C48.1154 33.5243 50.807 34.5059 52.3419 33.3475Z" fill="white"/>
<path d="M79.3878 28.8514C81.732 28.4479 83.2249 25.7501 82.7223 22.8257C82.2197 19.9012 79.9119 17.8576 77.5677 18.2611C75.2235 18.6646 73.7306 21.3624 74.2332 24.2869C74.7358 27.2113 77.0436 29.2549 79.3878 28.8514Z" fill="white"/>
<path d="M87.6277 59.7352C96.1023 56.627 102.363 52.4444 101.612 50.3931C100.861 48.3417 93.3818 49.1985 84.9073 52.3067C76.4327 55.4149 70.1717 59.5975 70.923 61.6489C71.6742 63.7002 79.1532 62.8435 87.6277 59.7352Z" fill="white"/>
<path d="M75.1838 62.7607L76.8948 66.1262C76.5998 66.2443 76.1278 66.4215 75.5968 66.6577C75.1248 66.8348 74.5938 67.0119 73.9448 67.2481L71.5848 62.5835L71.4077 62.2293L71.1718 61.7569L73.9448 60.3398L74.5348 61.5207L75.1838 62.7607Z" fill="white"/>
<path d="M112 91.5158L90.2878 99.4868L82.2638 83.6038L79.9628 78.9983H80.0218C80.9658 78.644 81.8508 78.1716 82.7358 77.6402L85.0368 82.2457L88.5178 89.154L89.3438 90.8072L91.7628 95.6489L108.283 89.5673L106.926 84.3714L106.336 82.1276L99.0789 53.9633L98.4299 51.4243L101.439 50.6567L101.557 51.1881L112 91.5158Z" fill="white"/>
<path d="M87.2199 53.0185C87.6919 54.3174 87.2789 55.6755 86.2759 56.0297C85.2729 56.384 84.0929 55.6164 83.6209 54.3765L78.3699 39.9695C77.8979 38.6705 78.3108 37.3125 79.3138 36.9582C80.3169 36.604 81.4969 37.3716 81.9689 38.6115L87.2199 53.0185Z" fill="white"/>
<path d="M92.7659 93.4643C93.6457 93.4643 94.3589 92.7505 94.3589 91.8701C94.3589 90.9896 93.6457 90.2759 92.7659 90.2759C91.8861 90.2759 91.1729 90.9896 91.1729 91.8701C91.1729 92.7505 91.8861 93.4643 92.7659 93.4643Z" fill="white"/>
<path d="M94.0049 89.3901C94.8847 89.3901 95.5979 88.6763 95.5979 87.7959C95.5979 86.9154 94.8847 86.2017 94.0049 86.2017C93.1251 86.2017 92.4119 86.9154 92.4119 87.7959C92.4119 88.6763 93.1251 89.3901 94.0049 89.3901Z" fill="white"/>
<path d="M92.7069 85.8476C93.5867 85.8476 94.2999 85.1339 94.2999 84.2534C94.2999 83.3729 93.5867 82.6592 92.7069 82.6592C91.8271 82.6592 91.1139 83.3729 91.1139 84.2534C91.1139 85.1339 91.8271 85.8476 92.7069 85.8476Z" fill="white"/>
<path d="M96.4829 84.4892C97.3627 84.4892 98.0759 83.7755 98.0759 82.895C98.0759 82.0145 97.3627 81.3008 96.4829 81.3008C95.6031 81.3008 94.8899 82.0145 94.8899 82.895C94.8899 83.7755 95.6031 84.4892 96.4829 84.4892Z" fill="white"/>
<path d="M100.082 83.1313C100.962 83.1313 101.675 82.4175 101.675 81.5371C101.675 80.6566 100.962 79.9429 100.082 79.9429C99.2021 79.9429 98.4889 80.6566 98.4889 81.5371C98.4889 82.4175 99.2021 83.1313 100.082 83.1313Z" fill="white"/>
<path d="M103.917 81.7143C104.797 81.7143 105.51 81.0006 105.51 80.1201C105.51 79.2396 104.797 78.5259 103.917 78.5259C103.037 78.5259 102.324 79.2396 102.324 80.1201C102.324 81.0006 103.037 81.7143 103.917 81.7143Z" fill="white"/>
<path d="M89.3439 87.3237C90.2237 87.3237 90.9369 86.6099 90.9369 85.7295C90.9369 84.849 90.2237 84.1353 89.3439 84.1353C88.4641 84.1353 87.7509 84.849 87.7509 85.7295C87.7509 86.6099 88.4641 87.3237 89.3439 87.3237Z" fill="white"/>
<path d="M97.958 87.914C98.8378 87.914 99.551 87.2003 99.551 86.3198C99.551 85.4393 98.8378 84.7256 97.958 84.7256C97.0782 84.7256 96.365 85.4393 96.365 86.3198C96.365 87.2003 97.0782 87.914 97.958 87.914Z" fill="white"/>
<path d="M101.97 86.438C102.85 86.438 103.563 85.7242 103.563 84.8437C103.563 83.9633 102.85 83.2495 101.97 83.2495C101.09 83.2495 100.377 83.9633 100.377 84.8437C100.377 85.7242 101.09 86.438 101.97 86.438Z" fill="white"/>
<path d="M105.628 85.1391C106.508 85.1391 107.221 84.4253 107.221 83.5449C107.221 82.6644 106.508 81.9507 105.628 81.9507C104.748 81.9507 104.035 82.6644 104.035 83.5449C104.035 84.4253 104.748 85.1391 105.628 85.1391Z" fill="white"/>
<path d="M90.1108 90.9843C90.9906 90.9843 91.7038 90.2706 91.7038 89.3901C91.7038 88.5097 90.9906 87.7959 90.1108 87.7959C89.231 87.7959 88.5178 88.5097 88.5178 89.3901C88.5178 90.2706 89.231 90.9843 90.1108 90.9843Z" fill="white"/>
<path d="M97.132 91.811C98.0118 91.811 98.725 91.0972 98.725 90.2168C98.725 89.3363 98.0118 88.6226 97.132 88.6226C96.2522 88.6226 95.5389 89.3363 95.5389 90.2168C95.5389 91.0972 96.2522 91.811 97.132 91.811Z" fill="white"/>
<path d="M101.321 90.2758C102.201 90.2758 102.914 89.5621 102.914 88.6816C102.914 87.8012 102.201 87.0874 101.321 87.0874C100.441 87.0874 99.7279 87.8012 99.7279 88.6816C99.7279 89.5621 100.441 90.2758 101.321 90.2758Z" fill="white"/>
<path d="M105.451 88.7998C106.331 88.7998 107.044 88.086 107.044 87.2056C107.044 86.3251 106.331 85.6113 105.451 85.6113C104.571 85.6113 103.858 86.3251 103.858 87.2056C103.858 88.086 104.571 88.7998 105.451 88.7998Z" fill="white"/>
<path d="M77.3668 40.3241C74.7118 40.3241 71.7618 39.5565 69.2838 37.1357C68.6938 36.5452 68.6348 35.5415 69.2248 34.951C69.8148 34.3606 70.8178 34.3015 71.4078 34.892C76.0098 39.3794 82.3818 36.0138 82.4408 36.0138C83.2078 35.6005 84.1518 35.8957 84.5058 36.6633C84.8598 37.4309 84.6239 38.3756 83.8569 38.7889C82.4998 39.5565 80.0808 40.3241 77.3668 40.3241Z" fill="white"/>
</svg>
