<svg width="448" height="480" viewBox="0 0 448 480" fill="none" xmlns="http://www.w3.org/2000/svg">
<path d="M341 5C370.333 5 395.5 15.5 416.5 36.5C437.5 57.5 448 82.6667 448 112C448 126.667 439.167 149.167 421.5 179.5C403.833 209.833 386.5 240.667 369.5 272C352.5 303.333 345 328.333 347 347C347 350.333 345.167 352 341.5 352C337.833 352 336 350.333 336 347C337.333 328.333 329.667 303.333 313 272C296.333 240.667 279.167 209.833 261.5 179.5C243.833 149.167 235 126.667 235 112C235 82.6667 245.333 57.5 266 36.5C286.667 15.5 311.667 5 341 5ZM341.5 69C329.833 69 319.833 73.1667 311.5 81.5C303.167 89.8333 299 100 299 112C299 124 303.167 134.167 311.5 142.5C319.833 150.833 329.833 155 341.5 155C353.167 155 363.167 150.833 371.5 142.5C379.833 134.167 384 124 384 112C384 100 379.833 89.8333 371.5 81.5C363.167 73.1667 353.167 69 341.5 69ZM43 48H228C214.667 69.3333 208 92.3333 208 117C208 134.333 218.667 162 240 200L1 439L0 432V91C0 79 4.16667 68.8333 12.5 60.5C20.8333 52.1667 31 48 43 48ZM310 323L259 272L273 257C289 283 301.333 305 310 323ZM371 475H56L213 317L371 475ZM427 227V432L426 439L354 367C356 361 358.333 354.833 361 348.5C363.667 342.167 366.667 335.5 370 328.5C373.333 321.5 376.5 315.167 379.5 309.5C382.5 303.833 386.5 296.667 391.5 288C396.5 279.333 400.167 272.833 402.5 268.5C404.833 264.167 409 257 415 247L427 227ZM100 251C88.6667 251 79.6667 248.667 73 244C66.3333 239.333 63 233 63 225C63 215.667 69 208.667 81 204C87.6667 202 95 201 103 201H108C116.667 207.667 122.667 212.667 126 216C129.333 219.333 131 223.333 131 228C131 234 128 239.333 122 244C116 248.667 108.667 251 100 251ZM75 129C75 122.333 76.8333 117.167 80.5 113.5C84.1667 109.833 88.3333 108 93 108C101.667 108 108.5 112 113.5 120C118.5 128 121 136.333 121 145C121 152.333 118.833 157.5 114.5 160.5C110.167 163.5 105.667 165 101 165C93.6667 165 87.5 161.167 82.5 153.5C77.5 145.833 75 137.667 75 129ZM127 191L120 185C116 181.667 114 178.667 114 176C114 171.333 116.333 167.333 121 164C132.333 155.333 138 145.667 138 135C138 125.667 133.333 117 124 109H136L145 100H102C88 100 77.1667 103.833 69.5 111.5C61.8333 119.167 58 128.333 58 139C58 147.667 61 155.333 67 162C73 168.667 81.3333 172 92 172H97L95 180C95 184.667 97 189.333 101 194C85 194.667 71.6667 198.333 61 205C50.3333 211 45 219.333 45 230C45 238.667 48.8333 245.833 56.5 251.5C64.1667 257.167 75.3333 260 90 260C106.667 260 119.833 256 129.5 248C139.167 240 144 231 144 221C144 210.333 138.333 200.333 127 191Z" fill="black"/>
<rect x="29" y="83" width="124" height="180" fill="black"/>
</svg>